<svg width="28" height="25" viewBox="0 0 28 25" fill="none" xmlns="http://www.w3.org/2000/svg">
<path d="M0.73785 9.67994L0.253007 9.80212L0.73785 9.67994ZM0.73785 9.67994C1.56921 12.978 4.00393 16.1526 6.62868 18.7662C9.24296 21.3693 11.9914 23.363 13.3693 24.3054C13.7472 24.5637 14.2443 24.5668 14.637 24.3038C16.02 23.3613 18.7694 21.3683 21.3824 18.7662C24.0068 16.1528 26.4388 12.9786 27.2659 9.68102C27.8131 7.48902 27.4 4.92165 26.041 3.06618C24.7043 1.24109 22.4223 0.0614829 19.0959 0.654326C17.8304 0.881241 16.6685 1.76708 15.794 2.65613C15.3634 3.09378 15.0172 3.51717 14.7787 3.831C14.6598 3.98763 14.5682 4.1162 14.5071 4.20461C14.4765 4.2488 14.4536 4.2829 14.4386 4.30539L14.4223 4.33021L14.4187 4.33571L14.4183 4.33643L14.4182 4.33661L14.4181 4.33668L14.4181 4.33671L13.9979 4.99405L13.5764 4.3375L13.5764 4.33746L13.5764 4.3374L13.5762 4.33722L13.5758 4.33649L13.5722 4.33097L13.5558 4.30613C13.5408 4.28362 13.5177 4.2495 13.487 4.20529C13.4257 4.11684 13.3338 3.98823 13.2144 3.83156C12.9752 3.51763 12.628 3.09413 12.1968 2.65638C11.3207 1.76697 10.1585 0.881156 8.89689 0.654291C5.57107 0.0615283 3.28929 1.24116 1.95388 3.06602C0.596232 4.92127 0.185572 7.48828 0.73785 9.67994Z" stroke="black"/>
</svg>
